<?xml version="1.0" encoding="UTF-8"?>
<svg id="katman_1" data-name="katman 1" xmlns="http://www.w3.org/2000/svg" viewBox="0 0 1078.18 311.04">
  <path d="m836.59,64.5l225,79c8.3-.4,15.1,5.4,16,12,1,7.8-6.1,16.2-16,16-75,25.7-150,51.4-225,77-22.5,7.3-46.2,14.3-71,21-29.5,7.9-57.9,14.5-85,20-44.7,5.7-89.3,11.3-134,17-46.9,2.8-96.7,4.3-149,4-42.1-.3-82.5-1.7-121-4-41.7-3.2-86.2-8-133-15-46.2-6.9-89.6-15.1-130-24-4.3-16-8.7-32-13-48l12-6v-116l-12-5.8,12-47.2c39.3-9,81.7-17.2,127-24,48.9-7.3,95.1-12.1,138-15C319.19,2.3,363.99.4,411.59.5c46,.1,89.4,1.9,129.8,5,43.4,3.8,91.1,10.1,142.2,20,56.6,11,107.8,24.7,153,39Z" fill="#fc5" stroke="#000" stroke-miterlimit="10"/>
  <path d="m886.59,130.5v51.3c-40.3,16.4-85.7,32.6-136,46.7-66.5,18.7-127.9,30.1-182,37-41.2,3.7-84.6,6.5-130,8-53.4,1.8-104.2,1.6-152,0-32.6-2.1-68.1-5.8-106-12-33.1-5.4-63.8-11.9-92-19,8-20.3,16-40.7,24-61h154v-54l-149,3-29-60.1c28.4-7.9,60.6-15.3,96-20.9,37.9-6,72.9-8.9,104-10,45.6-2.3,95.1-2.9,148-1,47,1.7,91,5.3,132,10,45,5.2,95.5,13.5,150,27,64.1,15.8,120.3,35.4,168,55Z" fill="#f2f2f2" stroke="#000" stroke-miterlimit="10"/>
  <rect x="480.59" y="81.5" width="40" height="46" fill="#999" stroke="#000" stroke-miterlimit="10"/>
  <rect x="480.59" y="185.5" width="40" height="46" fill="gray" stroke="#000" stroke-miterlimit="10"/>
  <polygon points="12.59 97.5 117.59 130.5 266.59 127.5 266.59 181.5 112.59 181.5 12.59 213.5 12.59 97.5" fill="#ccc" stroke="#000" stroke-miterlimit="10"/>
  <path d="m626.59,75.5c29.2,4.9,60.7,11.4,94,20,37.4,9.7,71.5,20.7,102.2,32-65.4-17.3-130.8-34.7-196.2-52Z" fill="#b3b3b3" stroke="#000" stroke-miterlimit="10"/>
  <path d="m626.59,239.4c29.4-4.4,61.2-10.5,95-18.9,37.1-9.2,70.9-19.8,101.2-30.7l-196.2,49.6Z" fill="#b3b3b3" stroke="#000" stroke-miterlimit="10"/>
  <rect x="812.59" y="140.5" width="42" height="31" fill="#b3b3b3" stroke="#000" stroke-miterlimit="10"/>
  <path d="m520.59,57.5c6.7,5.3,15.8,13.7,24,26,9.8,14.8,14,28.9,16,38,2.4,8.7,4.7,20.3,5,34,.3,16.4-2.3,30.1-5,39.8-1.6,7.6-4.7,18.1-11,29.2-9.4,16.6-21.5,26.8-29,32.2-37.9,3.3-77.9,5.7-120,6.8-47.2,1.2-91.9.7-134-1V52.2c38.2-3.6,81.1-5.7,128-4.7,46.2,1,88.5,4.8,126,10Z" fill="#f2f2f2" isolation="isolate" opacity=".5" stroke="#000" stroke-miterlimit="10"/>
</svg>